<svg xmlns="http://www.w3.org/2000/svg" width="30.25" height="25.929" viewBox="0 0 30.25 25.929">
  <g id="alarm-clock" transform="translate(0 -26.517)">
    <g id="Group_1939" data-name="Group 1939" transform="translate(4.99 26.827)">
      <g id="Group_1938" data-name="Group 1938" transform="translate(0 0)">
        <path id="Path_1504" data-name="Path 1504" d="M81.479,40.653A7.316,7.316,0,0,0,77.372,34a.614.614,0,0,0,.065-.261,3.422,3.422,0,0,0-3.422-3.422H68.7a3.422,3.422,0,0,0-3.422,3.422.767.767,0,0,0,.065.261,7.431,7.431,0,0,0-4.107,6.649v6.421a7.5,7.5,0,0,0,2.086,5.15l-1.858,2.933a.529.529,0,0,0,.163.717.438.438,0,0,0,.261.065.557.557,0,0,0,.424-.228l1.76-2.8A7.265,7.265,0,0,0,68.6,54.473h5.508a7.4,7.4,0,0,0,4.531-1.564l1.858,2.8a.475.475,0,0,0,.424.228.524.524,0,0,0,.424-.815l-1.956-2.933a7.3,7.3,0,0,0,2.086-5.15ZM68.7,31.364h5.313a2.386,2.386,0,0,1,2.379,2.216,7.433,7.433,0,0,0-2.282-.359H68.637a7.593,7.593,0,0,0-2.282.359A2.38,2.38,0,0,1,68.7,31.364ZM80.5,47.042A6.364,6.364,0,0,1,74.145,53.4H68.637a6.364,6.364,0,0,1-6.356-6.356V40.653A6.364,6.364,0,0,1,68.637,34.3h5.508A6.364,6.364,0,0,1,80.5,40.653Z" transform="translate(-61.238 -30.321)" fill="#030f29"/>
      </g>
    </g>
    <g id="Group_1941" data-name="Group 1941" transform="translate(7.206 32.107)">
      <g id="Group_1940" data-name="Group 1940">
        <path id="Path_1505" data-name="Path 1505" d="M98.477,95.121H94.24a5.815,5.815,0,0,0-5.8,5.8v4.922a5.815,5.815,0,0,0,5.8,5.8h4.237a5.815,5.815,0,0,0,5.8-5.8V100.89A5.787,5.787,0,0,0,98.477,95.121Zm4.759,10.723a4.764,4.764,0,0,1-4.759,4.759H94.24a4.764,4.764,0,0,1-4.759-4.759V100.89a4.764,4.764,0,0,1,4.759-4.759h4.237a4.764,4.764,0,0,1,4.759,4.759Z" transform="translate(-88.438 -95.121)" fill="#030f29"/>
      </g>
    </g>
    <g id="Group_1943" data-name="Group 1943" transform="translate(2.708 28.732)">
      <g id="Group_1942" data-name="Group 1942">
        <path id="Path_1506" data-name="Path 1506" d="M38.257,54.005a.511.511,0,0,0-.684-.261c-.163.065-4.107,1.858-4.335,5.867a.537.537,0,0,0,.489.554h.033a.529.529,0,0,0,.521-.489c.2-3.39,3.683-4.987,3.716-4.987A.511.511,0,0,0,38.257,54.005Z" transform="translate(-33.238 -53.693)" fill="#030f29"/>
      </g>
    </g>
    <g id="Group_1945" data-name="Group 1945" transform="translate(0 26.517)">
      <g id="Group_1944" data-name="Group 1944">
        <path id="Path_1507" data-name="Path 1507" d="M6.163,26.86a.554.554,0,0,0-.652-.326C5.283,26.6.3,28.424,0,33.541a.515.515,0,0,0,.489.554H.524a.529.529,0,0,0,.521-.489c.228-4.4,4.6-6.03,4.791-6.1A.554.554,0,0,0,6.163,26.86Z" transform="translate(0 -26.517)" fill="#030f29"/>
      </g>
    </g>
    <g id="Group_1947" data-name="Group 1947" transform="translate(22.409 28.732)">
      <g id="Group_1946" data-name="Group 1946">
        <path id="Path_1508" data-name="Path 1508" d="M275.746,53.744a.518.518,0,0,0-.424.945c.033,0,3.52,1.6,3.716,4.987a.509.509,0,0,0,.521.489h.033a.517.517,0,0,0,.489-.554C279.853,55.6,275.909,53.842,275.746,53.744Z" transform="translate(-275.01 -53.693)" fill="#030f29"/>
      </g>
    </g>
    <g id="Group_1949" data-name="Group 1949" transform="translate(24.025 26.534)">
      <g id="Group_1948" data-name="Group 1948">
        <path id="Path_1509" data-name="Path 1509" d="M295.528,26.759a.515.515,0,0,0-.326.978c.033,0,4.563,1.662,4.824,6.1a.509.509,0,0,0,.521.489h.033a.537.537,0,0,0,.489-.554C300.71,28.65,295.724,26.824,295.528,26.759Z" transform="translate(-294.844 -26.727)" fill="#030f29"/>
      </g>
    </g>
    <g id="Group_1951" data-name="Group 1951" transform="translate(11.744 34.324)">
      <g id="Group_1950" data-name="Group 1950">
        <path id="Path_1510" data-name="Path 1510" d="M148.031,126.949v-4.107a.521.521,0,1,0-1.043,0v4.139a1.965,1.965,0,0,0-1.434,1.89,1.922,1.922,0,0,0,.489,1.271l-1.825,2.542a.524.524,0,0,0,.424.815.475.475,0,0,0,.424-.228l1.825-2.575a1.9,1.9,0,0,0,.619.1,1.959,1.959,0,0,0,.521-3.846Zm-.521,2.8a.945.945,0,1,1,.945-.945A.926.926,0,0,1,147.51,129.752Z" transform="translate(-144.127 -122.321)" fill="#030f29"/>
      </g>
    </g>
  </g>
</svg>
