<svg xmlns="http://www.w3.org/2000/svg" width="24.621" height="27.01" viewBox="0 0 24.621 27.01">
  <g id="church" transform="translate(0.25 0.25)">
    <path id="Path_5877" data-name="Path 5877" d="M224.093,286.165a1.686,1.686,0,1,0-1.686-1.686A1.687,1.687,0,0,0,224.093,286.165Zm0-2.591a.905.905,0,1,1-.905.905A.906.906,0,0,1,224.093,283.574Z" transform="translate(-212.032 -268.083)" fill="#013c8b" stroke="#013c8b" stroke-width="0.5"/>
    <path id="Path_5878" data-name="Path 5878" d="M46.691,22.94a.39.39,0,0,0,.39-.39V20.213a.39.39,0,0,0-.2-.34l-6.074-3.435V15.2a.39.39,0,0,0-.19-.335l-1-.6v-1.8a.39.39,0,1,0-.78,0V13.8L35.22,11.649a.39.39,0,0,0-.4,0L31.207,13.8v-5.3h7.627v2.4a.39.39,0,1,0,.78,0V8.117a.4.4,0,0,0-.085-.243L35.411,2.708V1.731h.467a.39.39,0,1,0,0-.78h-.467V.39a.39.39,0,0,0-.78,0V.951h-.467a.39.39,0,1,0,0,.78h.467v.977L30.512,7.873a.394.394,0,0,0-.085.243v6.151l-1,.6a.39.39,0,0,0-.19.335v1.238l-6.074,3.435a.39.39,0,0,0-.2.34V26.12a.39.39,0,0,0,.39.39H46.691a.39.39,0,0,0,.39-.39V24.11a.39.39,0,1,0-.78,0v1.619H40.809V17.335L46.3,20.441V22.55A.39.39,0,0,0,46.691,22.94ZM35.02,3.471l3.394,4.256H31.627Zm-5.4,17.162a.39.39,0,0,0-.39.39v4.707H23.74V20.441l5.492-3.106v2.126a.39.39,0,1,0,.78,0v-2.8h0V15.423l5.008-2.985,5.008,2.985V16.66h0v9.069H37.612V21.912a2.592,2.592,0,0,0-5.184,0v3.817H30.012V21.022A.39.39,0,0,0,29.622,20.632Zm7.21,5.1H33.209V21.912a1.812,1.812,0,0,1,3.623,0v3.817Z" transform="translate(-22.96 0)" fill="#013c8b" stroke="#013c8b" stroke-width="0.5"/>
  </g>
</svg>
