<svg xmlns="http://www.w3.org/2000/svg" width="26.777" height="21.152" viewBox="0 0 26.777 21.152">
  <g id="newspaper" transform="translate(0.25 0.25)">
    <g id="Group_591" data-name="Group 591" transform="translate(0 0)">
      <g id="Group_590" data-name="Group 590">
        <path id="Path_5877" data-name="Path 5877" d="M25.894,46.941H22.385V44.384A.384.384,0,0,0,22,44H2.327A2.332,2.332,0,0,0,0,46.327v16a2.332,2.332,0,0,0,2.327,2.327H23.95a2.332,2.332,0,0,0,2.327-2.327v-15A.384.384,0,0,0,25.894,46.941ZM2.327,63.89a1.565,1.565,0,0,1-1.56-1.56V46.342a1.565,1.565,0,0,1,1.56-1.56H21.618V62.325a2.332,2.332,0,0,0,.6,1.56Zm23.158-1.565A1.565,1.565,0,0,1,23.95,63.89a1.534,1.534,0,0,1-1.56-1.508q0-.026,0-.052V47.713h3.094Z" transform="translate(0 -44)" fill="#013c8b" stroke="#013c8b" stroke-width="0.5"/>
      </g>
    </g>
    <g id="Group_593" data-name="Group 593" transform="translate(3.503 2.331)">
      <g id="Group_592" data-name="Group 592">
        <path id="Path_5878" data-name="Path 5878" d="M57.256,80.482a.281.281,0,0,0-.276.276V82.87L55.3,80.579a.281.281,0,0,0-.389-.061.276.276,0,0,0-.113.235V83.74a.281.281,0,0,0,.275.287H55.1a.286.286,0,0,0,.276-.281V81.612l1.647,2.281.026.031a.276.276,0,0,0,.21.1.286.286,0,0,0,.281-.281V80.758A.286.286,0,0,0,57.256,80.482Z" transform="translate(-54.795 -80.466)" fill="#013c8b" stroke="#013c8b" stroke-width="0.5"/>
      </g>
    </g>
    <g id="Group_595" data-name="Group 595" transform="translate(7.145 2.296)">
      <g id="Group_594" data-name="Group 594">
        <path id="Path_5879" data-name="Path 5879" d="M113.733,82.948h-1.406V82h1.2a.286.286,0,0,0,0-.568h-1.2v-.941h1.406a.292.292,0,0,0,.281-.286.286.286,0,0,0-.281-.281h-1.693a.281.281,0,0,0-.281.281v3.028a.281.281,0,0,0,.276.286h1.7a.286.286,0,0,0,0-.568Z" transform="translate(-111.759 -79.92)" fill="#013c8b" stroke="#013c8b" stroke-width="0.5"/>
      </g>
    </g>
    <g id="Group_597" data-name="Group 597" transform="translate(9.751 2.335)">
      <g id="Group_596" data-name="Group 596">
        <path id="Path_5880" data-name="Path 5880" d="M157.313,80.55a.286.286,0,0,0-.373.148l-1.023,2.378-.66-1.575a.292.292,0,0,0-.266-.174.281.281,0,0,0-.266.174l-.66,1.575L153.043,80.7a.281.281,0,0,0-.511.215L154.05,83.9a.394.394,0,0,0,.026.046v.031h.036a.133.133,0,0,0,.046.031h.164a.077.077,0,0,1,.041,0l.041-.031h.031l.031-.031V83.9l.67-1.591.675,1.591a.143.143,0,0,0,0,.046v.031h.036a.1.1,0,0,0,.046.031h.2a.055.055,0,0,0,.046-.031h.036v-.031a.143.143,0,0,0,.026-.046l1.258-2.992A.276.276,0,0,0,157.313,80.55Z" transform="translate(-152.524 -80.527)" fill="#013c8b" stroke="#013c8b" stroke-width="0.5"/>
      </g>
    </g>
    <g id="Group_599" data-name="Group 599" transform="translate(15.573 2.194)">
      <g id="Group_598" data-name="Group 598">
        <path id="Path_5881" data-name="Path 5881" d="M246.274,80.487a1.2,1.2,0,0,0-.511-.424,3.068,3.068,0,0,0-.711-.225,1.769,1.769,0,0,1-.639-.225.511.511,0,0,1-.138-.133.245.245,0,0,1-.036-.143.409.409,0,0,1,.194-.322.982.982,0,0,1,.573-.174,1.176,1.176,0,0,1,.829.327.251.251,0,0,0,.35-.056l.013-.02a.266.266,0,0,0-.072-.363,1.729,1.729,0,0,0-1.12-.409,1.534,1.534,0,0,0-.89.271.951.951,0,0,0-.409.752.788.788,0,0,0,.118.419,1.11,1.11,0,0,0,.476.4,2.745,2.745,0,0,0,.665.2,2.047,2.047,0,0,1,.706.24.482.482,0,0,1,.153.153.291.291,0,0,1,.046.164.46.46,0,0,1-.22.368,1.1,1.1,0,0,1-.639.189,1.673,1.673,0,0,1-.982-.394.266.266,0,0,0-.373.036.271.271,0,0,0,.041.373,2.219,2.219,0,0,0,1.309.522,1.605,1.605,0,0,0,.951-.292.992.992,0,0,0,.44-.8A.833.833,0,0,0,246.274,80.487Z" transform="translate(-243.599 -78.318)" fill="#013c8b" stroke="#013c8b" stroke-width="0.5"/>
      </g>
    </g>
    <g id="Group_601" data-name="Group 601" transform="translate(2.782 7.124)">
      <g id="Group_600" data-name="Group 600">
        <path id="Path_5882" data-name="Path 5882" d="M59.364,155.44H43.9a.384.384,0,1,0,0,.767H59.364a.384.384,0,1,0,0-.767Z" transform="translate(-43.52 -155.44)" fill="#013c8b" stroke="#013c8b" stroke-width="0.5"/>
      </g>
    </g>
    <g id="Group_603" data-name="Group 603" transform="translate(2.782 10.234)">
      <g id="Group_602" data-name="Group 602">
        <path id="Path_5883" data-name="Path 5883" d="M57.656,204.08H43.9a.384.384,0,1,0,0,.767H57.656a.384.384,0,1,0,0-.767Z" transform="translate(-43.52 -204.08)" fill="#013c8b" stroke="#013c8b" stroke-width="0.5"/>
      </g>
    </g>
    <g id="Group_605" data-name="Group 605" transform="translate(2.782 12.218)">
      <g id="Group_604" data-name="Group 604">
        <path id="Path_5884" data-name="Path 5884" d="M57.656,235.12H43.9a.384.384,0,1,0,0,.767H57.656a.384.384,0,1,0,0-.767Z" transform="translate(-43.52 -235.12)" fill="#013c8b" stroke="#013c8b" stroke-width="0.5"/>
      </g>
    </g>
    <g id="Group_607" data-name="Group 607" transform="translate(2.782 14.197)">
      <g id="Group_606" data-name="Group 606">
        <path id="Path_5885" data-name="Path 5885" d="M57.656,266.08H43.9a.384.384,0,1,0,0,.767H57.656a.384.384,0,1,0,0-.767Z" transform="translate(-43.52 -266.08)" fill="#013c8b" stroke="#013c8b" stroke-width="0.5"/>
      </g>
    </g>
    <g id="Group_609" data-name="Group 609" transform="translate(2.782 16.182)">
      <g id="Group_608" data-name="Group 608">
        <path id="Path_5886" data-name="Path 5886" d="M57.656,297.12H43.9a.384.384,0,1,0,0,.767H57.656a.384.384,0,1,0,0-.767Z" transform="translate(-43.52 -297.12)" fill="#013c8b" stroke="#013c8b" stroke-width="0.5"/>
      </g>
    </g>
  </g>
</svg>
