<svg xmlns="http://www.w3.org/2000/svg" width="33.8" height="26.987" viewBox="0 0 33.8 26.987">
  <g id="pray_1_" data-name="pray (1)" transform="translate(9.84 7.087)">
    <path id="Path_5904" data-name="Path 5904" d="M310.141,70.728a.879.879,0,0,1-.879-.879V68.156a.879.879,0,0,1,1.758,0V69.85A.879.879,0,0,1,310.141,70.728Zm0,0" transform="translate(-303.081 -74.364)" fill="#013c8b"/>
    <path id="Path_5905" data-name="Path 5905" d="M182.443,123.623a.876.876,0,0,1-.621-.257l-1.2-1.2a.879.879,0,0,1,1.243-1.243l1.2,1.2a.879.879,0,0,1-.621,1.5Zm0,0" transform="translate(-185.515 -123.062)" fill="#013c8b"/>
    <path id="Path_5906" data-name="Path 5906" d="M425.417,123.623a.879.879,0,0,1-.621-1.5l1.2-1.2a.879.879,0,0,1,1.243,1.243l-1.2,1.2A.877.877,0,0,1,425.417,123.623Zm0,0" transform="translate(-408.225 -123.062)" fill="#013c8b"/>
    <path id="Path_5907" data-name="Path 5907" d="M474.857,251.32h-1.693a.879.879,0,0,1,0-1.758h1.693a.879.879,0,0,1,0,1.758Zm0,0" transform="translate(-451.776 -240.628)" fill="#013c8b"/>
    <path id="Path_5908" data-name="Path 5908" d="M129.548,251.32h-1.693a.879.879,0,0,1,0-1.758h1.693a.879.879,0,0,1,0,1.758Zm0,0" transform="translate(-136.816 -240.628)" fill="#013c8b"/>
    <path id="Path_5909" data-name="Path 5909" d="M9.04,19.9H5.26a.879.879,0,0,1-.879-.879V10.413H.879A.879.879,0,0,1,0,9.534V5.755a.879.879,0,0,1,.879-.879h3.5v-4A.879.879,0,0,1,5.26,0H9.04a.879.879,0,0,1,.879.879v4h3.5a.879.879,0,0,1,.879.879V9.534a.879.879,0,0,1-.879.879h-3.5v8.607A.879.879,0,0,1,9.04,19.9Zm-2.9-1.758H8.161V9.534a.879.879,0,0,1,.879-.879h3.5V6.634H9.04a.879.879,0,0,1-.879-.879v-4H6.139v4a.879.879,0,0,1-.879.879h-3.5V8.656h3.5a.879.879,0,0,1,.879.879Zm0,0" fill="#013c8b"/>
  </g>
</svg>
