<svg xmlns="http://www.w3.org/2000/svg" width="22.198" height="22.198" viewBox="0 0 22.198 22.198">
  <g id="settings" transform="translate(0.25 0.25)">
    <path id="Path_1629" data-name="Path 1629" d="M20.581,8.438h-2.03A.779.779,0,0,1,18,7.108l1.435-1.435a1.118,1.118,0,0,0,0-1.58L17.606,2.263a1.144,1.144,0,0,0-1.58,0L14.591,3.7a.779.779,0,0,1-1.33-.551V1.117A1.118,1.118,0,0,0,12.143,0H9.555A1.118,1.118,0,0,0,8.438,1.117v2.03a.779.779,0,0,1-1.33.551L5.673,2.263a1.144,1.144,0,0,0-1.58,0L2.263,4.093a1.118,1.118,0,0,0,0,1.58L3.7,7.108a.779.779,0,0,1-.551,1.33H1.117A1.118,1.118,0,0,0,0,9.555v2.587A1.118,1.118,0,0,0,1.117,13.26h2.03a.779.779,0,0,1,.551,1.33L2.263,16.025a1.118,1.118,0,0,0,0,1.58l1.829,1.829a1.143,1.143,0,0,0,1.58,0L7.108,18a.779.779,0,0,1,1.33.551v2.03A1.118,1.118,0,0,0,9.555,21.7h2.587a1.118,1.118,0,0,0,1.117-1.117v-2.03A.779.779,0,0,1,14.59,18l1.435,1.435a1.144,1.144,0,0,0,1.58,0l1.829-1.829a1.118,1.118,0,0,0,0-1.58L18,14.591a.779.779,0,0,1,.552-1.33h2.03A1.118,1.118,0,0,0,21.7,12.143V9.555A1.118,1.118,0,0,0,20.581,8.438Zm.313,3.7a.314.314,0,0,1-.313.313h-2.03a1.583,1.583,0,0,0-1.119,2.7l1.435,1.435a.314.314,0,0,1,0,.444l-1.83,1.83a.314.314,0,0,1-.444,0l-1.435-1.435a1.583,1.583,0,0,0-2.7,1.119v2.03a.314.314,0,0,1-.313.313H9.555a.314.314,0,0,1-.313-.313v-2.03a1.558,1.558,0,0,0-.977-1.463,1.6,1.6,0,0,0-.616-.125,1.561,1.561,0,0,0-1.109.468L5.1,18.867a.314.314,0,0,1-.444,0L2.831,17.037a.314.314,0,0,1,0-.444l1.435-1.435a1.583,1.583,0,0,0-1.119-2.7H1.117A.314.314,0,0,1,.8,12.143V9.555a.314.314,0,0,1,.313-.313h2.03a1.583,1.583,0,0,0,1.119-2.7L2.831,5.1a.314.314,0,0,1,0-.444L4.661,2.831a.314.314,0,0,1,.444,0L6.539,4.266a1.583,1.583,0,0,0,2.7-1.119V1.117A.314.314,0,0,1,9.555.8h2.587a.314.314,0,0,1,.314.313v2.03a1.583,1.583,0,0,0,2.7,1.119l1.435-1.435a.314.314,0,0,1,.444,0l1.83,1.829a.314.314,0,0,1,0,.444L17.432,6.54a1.583,1.583,0,0,0,1.119,2.7h2.03a.313.313,0,0,1,.313.313Z" transform="translate(0 0)" fill="#013c8b" stroke="#013c8b" stroke-width="0.5"/>
    <path id="Path_1630" data-name="Path 1630" d="M21.616,18a3.616,3.616,0,1,0,3.616,3.616A3.62,3.62,0,0,0,21.616,18Zm0,6.429a2.813,2.813,0,1,1,2.813-2.813A2.816,2.816,0,0,1,21.616,24.429Z" transform="translate(-10.767 -10.767)" fill="#013c8b" stroke="#013c8b" stroke-width="0.5"/>
  </g>
</svg>
