<svg id="_09" data-name="09" xmlns="http://www.w3.org/2000/svg" width="11.495" height="9.385" viewBox="0 0 11.495 9.385">
  <g id="Слой_2" data-name="Слой 2" transform="translate(0)">
    <g id="Слой_1" data-name="Слой 1">
      <path id="Path_5" data-name="Path 5" d="M0,9.069a.364.364,0,0,0,.285.323.361.361,0,0,0,.41-.253A6.088,6.088,0,0,1,6.177,5.626H7.643V6.912a.311.311,0,0,0,.1.218.3.3,0,0,0,.195.077A.283.283,0,0,0,8.13,7.13l3.28-3.317a.3.3,0,0,0,0-.415L8.137.1a.289.289,0,0,0-.312-.06A.3.3,0,0,0,7.643.3V1.585H7.053A7.117,7.117,0,0,0,1.494,4.4,7.633,7.633,0,0,0,0,9.069Z" transform="translate(0.002 -0.014)" fill="#1b1b1b"/>
    </g>
  </g>
</svg>
